<svg xmlns="http://www.w3.org/2000/svg" xmlns:xlink="http://www.w3.org/1999/xlink" version="1.1" width="1000" height="1000" viewBox="0 0 1000 1000" xml:space="preserve">
<desc>Created with Fabric.js 3.5.0</desc>
<defs>
</defs>
<rect x="0" y="0" width="100%" height="100%" fill="#e7e7e7" rx="50" ry="50"/>
<g transform="matrix(1.1536 0 0 1.1536 500.0079 500.0103)" id="497040">
<g style="" vector-effect="non-scaling-stroke">
		<g transform="matrix(1 0 0 1 0.05 0.0125)" id="Layer_1-2">
<path style="stroke: none; stroke-width: 1; stroke-dasharray: none; stroke-linecap: butt; stroke-dashoffset: 0; stroke-linejoin: miter; stroke-miterlimit: 4; is-custom-font: none; font-file-url: none; fill: rgb(20,123,66); fill-rule: nonzero; opacity: 1;" transform=" translate(-250.05, -326.0625)" d="M 250 0 C 111.9 0 0 111.9 0 250 c 0 38.8 19.7 87.8 48.2 138.3 c 63.4 112.7 169.9 232.5 196 261.2 c 3.2 3.5 8.6 3.5 11.8 0 c 21.2 -23.3 95.9 -107.2 157.1 -198.5 c 47.6 -70.9 87 -146.2 87 -201.1 C 500 111.9 388.1 0 250 0 z M 385.8 432.8 C 341 499.6 288.3 563 256 600 c -3.2 3.7 -8.8 3.7 -12 0 c -41.9 -48.2 -118.4 -140.8 -167.3 -227.8 c -36.3 -64.6 -44 -102.2 -44 -122.3 c 0 -119.8 97.4 -217.3 217.3 -217.3 S 467.3 130.2 467.3 250 C 467.3 278 453.1 332.5 385.8 432.8 L 385.8 432.8 z" stroke-linecap="round"/>
</g>
		<g transform="matrix(1 0 0 1 -19.6511 120.3)" id="Layer_1-2">
<path style="stroke: none; stroke-width: 1; stroke-dasharray: none; stroke-linecap: butt; stroke-dashoffset: 0; stroke-linejoin: miter; stroke-miterlimit: 4; is-custom-font: none; font-file-url: none; fill: rgb(20,123,66); fill-rule: nonzero; opacity: 1;" transform=" translate(-230.3488, -446.35)" d="M 193.6 242.9 L 52.4 384 c -2.5 2.5 -3.1 6.5 -1.3 9.6 c 63.7 111.2 167.3 227.7 193 255.9 c 3.2 3.5 8.6 3.5 11.8 0 c 20.8 -22.9 92.9 -103.9 153.4 -193 c 2.1 -3.2 1.7 -7.4 -1 -10.1 L 204.8 242.9 C 201.7 239.8 196.7 239.8 193.6 242.9 L 193.6 242.9 z M 93.6 389.2 l 100 -100 c 3.1 -3.1 8.1 -3.1 11.3 0 l 161 161 c 2.7 2.7 3.1 7.1 0.9 10.2 c -40 56.3 -82.9 107.7 -110.7 139.6 c -3.2 3.6 -8.8 3.6 -12 0 c -37.6 -43.3 -103.2 -122.4 -151.5 -201 C 90.5 395.9 91 391.8 93.6 389.2 L 93.6 389.2 z" stroke-linecap="round"/>
</g>
		<g transform="matrix(1 0 0 1 70.2 -4.95)" id="Layer_1-2">
<path style="stroke: none; stroke-width: 1; stroke-dasharray: none; stroke-linecap: butt; stroke-dashoffset: 0; stroke-linejoin: miter; stroke-miterlimit: 4; is-custom-font: none; font-file-url: none; fill: rgb(20,123,66); fill-rule: nonzero; opacity: 1;" transform=" translate(-320.2, -321.1)" d="M 311.8 254 h 16.8 c 4.4 0 8 3.6 8 8 v 118.2 c 0 4.4 -3.6 8 -8 8 h -16.8 c -4.4 0 -8 -3.6 -8 -8 V 261.9 C 303.9 257.5 307.4 254 311.8 254 z" stroke-linecap="round"/>
</g>
		<g transform="matrix(1 0 0 1 70.2687 -135.5397)" id="Layer_1-2">
<path style="stroke: none; stroke-width: 1; stroke-dasharray: none; stroke-linecap: butt; stroke-dashoffset: 0; stroke-linejoin: miter; stroke-miterlimit: 4; is-custom-font: none; font-file-url: none; fill: rgb(20,123,66); fill-rule: nonzero; opacity: 1;" transform=" translate(-320.2687, -190.5103)" d="M 348.7 192.1 l -5.3 5.3 l -17.5 17.5 c -3.1 3.1 -8.1 3.1 -11.3 0 l -17.5 -17.5 l -5.3 -5.3 c -6.4 -6.4 -6.7 -17.2 -0.3 -23.6 c 3.2 -3.2 7.4 -4.7 11.5 -4.7 s 8.4 1.6 11.6 4.8 l 5.6 5.6 l 5.6 -5.6 c 6.6 -6.6 17.4 -6.4 23.7 0.6 C 355.5 175.6 354.9 185.8 348.7 192.1 L 348.7 192.1 z" stroke-linecap="round"/>
</g>
</g>
</g>
</svg>