<?xml version="1.0" encoding="UTF-8"?>
<svg id="Layer_2" data-name="Layer 2" xmlns="http://www.w3.org/2000/svg" viewBox="0 0 500 652.11">
  <defs>
    <style>
      .cls-1 {
        fill: #fff;
        stroke-width: 0px;
      }
    </style>
  </defs>
  <g id="Layer_1-2" data-name="Layer 1">
    <g>
      <path class="cls-1" d="m250,0C111.92,0,0,111.92,0,250c0,38.79,19.74,87.83,48.15,138.34,63.41,112.72,169.91,232.53,195.96,261.17,3.16,3.47,8.61,3.47,11.76,0,21.22-23.34,95.87-107.22,157.08-198.45,47.6-70.9,87.04-146.23,87.04-201.06C500,111.92,388.08,0,250,0Zm135.79,432.83c-44.8,66.75-97.53,130.15-129.79,167.22-3.17,3.65-8.82,3.65-12,0-41.92-48.2-118.44-140.84-167.3-227.75-36.34-64.59-43.96-102.17-43.96-122.3,0-119.81,97.45-217.26,217.26-217.26s217.26,97.45,217.26,217.26c0,28.02-14.14,82.49-81.48,182.83Z"/>
      <path class="cls-1" d="m193.56,242.93L52.44,384.05c-2.53,2.53-3.08,6.45-1.29,9.56,63.71,111.16,167.32,227.7,192.97,255.9,3.16,3.47,8.61,3.47,11.76,0,20.8-22.87,92.91-103.9,153.4-193.01,2.14-3.16,1.73-7.39-.97-10.09l-203.49-203.49c-3.11-3.11-8.15-3.11-11.26,0Zm-99.96,146.28l99.96-99.99c3.11-3.11,8.15-3.11,11.26,0l160.99,160.99c2.74,2.74,3.12,7.07.87,10.23-40.02,56.32-82.92,107.72-110.69,139.61-3.17,3.64-8.83,3.64-12,0-37.63-43.28-103.16-122.41-151.54-201.01-1.94-3.15-1.48-7.21,1.14-9.83Z"/>
      <rect class="cls-1" x="303.88" y="253.96" width="32.74" height="134.14" rx="7.96" ry="7.96"/>
      <path class="cls-1" d="m348.67,192.06l-5.26,5.26-17.51,17.54c-3.11,3.11-8.15,3.12-11.26,0l-17.51-17.51-5.29-5.29c-6.4-6.4-6.74-17.21-.31-23.57,3.2-3.17,7.36-4.72,11.53-4.72s8.38,1.57,11.59,4.78l5.63,5.63,5.63-5.63c6.56-6.56,17.35-6.38,23.68.56,5.95,6.52,5.35,16.71-.9,22.95Z"/>
    </g>
  </g>
</svg>