<?xml version="1.0" encoding="utf-8"?>
<!-- Generator: Adobe Illustrator 27.9.0, SVG Export Plug-In . SVG Version: 6.00 Build 0)  -->
<svg version="1.1" id="Layer_2_00000052789401817160473310000005219489984530411929_"
	 xmlns="http://www.w3.org/2000/svg" xmlns:xlink="http://www.w3.org/1999/xlink" x="0px" y="0px" viewBox="0 0 500 652.1"
	 style="enable-background:new 0 0 500 652.1;" xml:space="preserve">
<style type="text/css">
	.st0{fill:#212529;}
</style>
<g id="Layer_1-2">
	<g>
		<path class="st0" d="M250,0C111.9,0,0,111.9,0,250c0,38.8,19.7,87.8,48.2,138.3c63.4,112.7,169.9,232.5,196,261.2
			c3.2,3.5,8.6,3.5,11.8,0c21.2-23.3,95.9-107.2,157.1-198.5c47.6-70.9,87-146.2,87-201.1C500,111.9,388.1,0,250,0z M385.8,432.8
			C341,499.6,288.3,563,256,600c-3.2,3.7-8.8,3.7-12,0c-41.9-48.2-118.4-140.8-167.3-227.8c-36.3-64.6-44-102.2-44-122.3
			c0-119.8,97.4-217.3,217.3-217.3S467.3,130.2,467.3,250C467.3,278,453.1,332.5,385.8,432.8L385.8,432.8z"/>
		<path class="st0" d="M193.6,242.9L52.4,384c-2.5,2.5-3.1,6.5-1.3,9.6c63.7,111.2,167.3,227.7,193,255.9c3.2,3.5,8.6,3.5,11.8,0
			c20.8-22.9,92.9-103.9,153.4-193c2.1-3.2,1.7-7.4-1-10.1L204.8,242.9C201.7,239.8,196.7,239.8,193.6,242.9L193.6,242.9z
			 M93.6,389.2l100-100c3.1-3.1,8.1-3.1,11.3,0l161,161c2.7,2.7,3.1,7.1,0.9,10.2c-40,56.3-82.9,107.7-110.7,139.6
			c-3.2,3.6-8.8,3.6-12,0c-37.6-43.3-103.2-122.4-151.5-201C90.5,395.9,91,391.8,93.6,389.2L93.6,389.2z"/>
		<path class="st0" d="M311.8,254h16.8c4.4,0,8,3.6,8,8v118.2c0,4.4-3.6,8-8,8h-16.8c-4.4,0-8-3.6-8-8V261.9
			C303.9,257.5,307.4,254,311.8,254z"/>
		<path class="st0" d="M348.7,192.1l-5.3,5.3l-17.5,17.5c-3.1,3.1-8.1,3.1-11.3,0l-17.5-17.5l-5.3-5.3c-6.4-6.4-6.7-17.2-0.3-23.6
			c3.2-3.2,7.4-4.7,11.5-4.7s8.4,1.6,11.6,4.8l5.6,5.6l5.6-5.6c6.6-6.6,17.4-6.4,23.7,0.6C355.5,175.6,354.9,185.8,348.7,192.1
			L348.7,192.1z"/>
	</g>
</g>
</svg>
